<svg id="Layer_5" enable-background="new 0 0 64 64" height="512" viewBox="0 0 64 64" width="512" xmlns="http://www.w3.org/2000/svg"><g><path d="m60 1h-56c-1.654 0-3 1.346-3 3v38c0 1.654 1.346 3 3 3h1v8h20.688c3.575 6.178 10.153 10 17.312 10 11.028 0 20-8.972 20-20v-39c0-1.654-1.346-3-3-3zm-56 2h56c.552 0 1 .449 1 1v5h-58v-5c0-.551.448-1 1-1zm45.606 30h-13.212c1.5-4.899 4.025-8 6.606-8s5.105 3.101 6.606 8zm-15.293 0h-6.271c2.359-3.527 5.854-6.073 9.851-7.255-1.476 1.723-2.715 4.199-3.58 7.255zm17.687 2c1.654 0 3 1.346 3 3v10c0 1.654-1.346 3-3 3h-35v-16zm-9 26c-2.581 0-5.105-3.101-6.606-8h13.213c-1.502 4.899-4.027 8-6.607 8zm-28-10h-8v-16h8zm13.042 2h6.271c.866 3.055 2.104 5.531 3.578 7.253-3.995-1.182-7.491-3.728-9.849-7.253zm20.07 7.25c1.473-1.722 2.711-4.197 3.576-7.25h.312c2.757 0 5-2.243 5-5v-10c0-2.757-2.243-5-5-5h-.312c-.865-3.053-2.102-5.527-3.575-7.25 7.44 2.21 12.887 9.101 12.887 17.25s-5.447 15.04-12.888 17.25zm-5.112-37.25c-7.164 0-13.736 3.82-17.31 10h-20.69v10h-1c-.552 0-1-.449-1-1v-31h58v23.34c-3.236-6.697-10.077-11.34-18-11.34z"/><path d="m5 5h2v2h-2z"/><path d="m13 5h2v2h-2z"/><path d="m9 5h2v2h-2z"/><path d="m5 31h18v-18h-18zm2-16h14v14h-14z"/><path d="m43 13v8h16v-8zm14 6h-12v-4h12z"/><path d="m25 13h2v2h-2z"/><path d="m29 13h12v2h-12z"/><path d="m25 17h16v2h-16z"/><path d="m25 21h12v2h-12z"/><path d="m26 46c1.654 0 3-1.346 3-3s-1.346-3-3-3-3 1.346-3 3 1.346 3 3 3zm0-4c.552 0 1 .449 1 1s-.448 1-1 1-1-.449-1-1 .448-1 1-1z"/><path d="m36 46c1.654 0 3-1.346 3-3s-1.346-3-3-3-3 1.346-3 3 1.346 3 3 3zm0-4c.552 0 1 .449 1 1s-.448 1-1 1-1-.449-1-1 .448-1 1-1z"/><path d="m46 46c1.654 0 3-1.346 3-3s-1.346-3-3-3-3 1.346-3 3 1.346 3 3 3zm0-4c.552 0 1 .449 1 1s-.448 1-1 1-1-.449-1-1 .448-1 1-1z"/></g></svg>