<svg id="icons" fill="#5d2e90" enable-background="new 0 0 64 64" height="512" viewBox="0 0 64 64" width="512" xmlns="http://www.w3.org/2000/svg"><path d="m61 3.998h-58c-1.654 0-3 1.346-3 3v52.004c0 .553.447 1 1 1h62c.553 0 1-.447 1-1v-52.004c0-1.654-1.346-3-3-3zm-59 6h60v48.004h-60zm1-4h1.02c-.552 0-.994.447-.994 1s.452 1 1.005 1c.552 0 1-.447 1-1s-.448-1-1-1h2.988c-.552 0-.994.447-.994 1s.452 1 1.005 1c.552 0 1-.447 1-1s-.448-1-1-1h2.992c-.552 0-.994.447-.994 1s.452 1 1.005 1c.552 0 1-.447 1-1s-.448-1-1-1h50.967c.552 0 1 .448 1 1v1h-51.968-3.003-2.999-2.03v-1c0-.552.448-1 1-1z"/><path d="m59 11.999h-54c-.553 0-1 .447-1 1v4.999c0 .553.447 1 1 1h54c.553 0 1-.447 1-1v-4.999c0-.553-.447-1-1-1zm-1 4.999h-2.995c.254-.001.508-.098.702-.292l1-1c.391-.391.391-1.023 0-1.414-.195-.195-.451-.293-.707-.293s-.512.098-.707.293l-.293.293-.293-.293c-.195-.195-.451-.293-.707-.293s-.512.098-.707.293c-.391.391-.391 1.023 0 1.414l1 1c.194.194.448.291.702.292h-48.995v-2.999h48 2 2z"/><path d="m59 20h-54c-.553 0-1 .447-1 1v12.997c0 .553.447 1 1 1h54c.553 0 1-.447 1-1v-12.997c0-.553-.447-1-1-1zm-1 12.997h-52v-10.997h52z"/><path d="m15 40.007h13.992c.553 0 1-.447 1-1s-.447-1-1-1h-13.992c-.553 0-1 .447-1 1s.447 1 1 1z"/><path d="m22.985 42.007c0-.553-.447-1-1-1h-6.985c-.553 0-1 .447-1 1s.447 1 1 1h6.985c.553 0 1-.447 1-1z"/><path d="m43.002 48.001c-.001 0-.001 0-.002 0h-22c-.001 0-.002.001-.003.001-2.202.003-3.993 1.795-3.993 3.998 0 2.204 1.791 3.996 3.993 3.999.001 0 .002.001.003.001h22 .002c2.203-.003 3.995-1.795 3.995-3.999 0-2.205-1.792-3.997-3.995-4zm-.004 5.999h-21.995c-1.103 0-1.999-.897-1.999-2s.896-1.999 1.999-1.999h21.995c1.103 0 1.999.897 1.999 2s-.896 1.999-1.999 1.999z"/><path d="m39 51h-14c-.553 0-1 .447-1 1s.447 1 1 1h14c.553 0 1-.447 1-1s-.447-1-1-1z"/><path d="m11.294 37.299-3.289 3.289-.298-.298c-.391-.391-1.023-.391-1.414 0-.195.195-.293.451-.293.707s.098.512.293.707l1.005 1.005c.188.188.435.282.682.288h-1.98v-2-2h1.998c.553 0 1-.447 1-1s-.447-1-1-1h-2.998c-.553 0-1 .447-1 1v6c0 .553.447 1 1 1h6c.553 0 1-.447 1-1v-.998c0-.553-.447-1-1-1-.552 0-.999.446-1 .998h-1.97c.247-.006.493-.1.682-.288l3.996-3.996c.391-.391.391-1.023 0-1.414s-1.023-.391-1.414 0z"/><path d="m41.004 44.997c.553 0 1-.447 1-1v-5.989c0-.553-.447-1-1-1h-6c-.553 0-1 .447-1 1v5.989c0 .553.447 1 1 1zm-5-5.989h4v3.989h-4z"/></svg>