<svg id="Capa_1" fill="#5d2e90" enable-background="new 0 0 512 512" height="512" viewBox="0 0 512 512" width="512" xmlns="http://www.w3.org/2000/svg"><g><path id="XMLID_109_" d="m268.895 222.684c-8.284 0-15 6.716-15 15v48.722c0 8.284 6.716 15 15 15s15-6.716 15-15v-48.722c0-8.284-6.716-15-15-15z"/><path id="XMLID_108_" d="m268.895 184.447c-8.284 0-15 6.716-15 15v3.7c0 8.284 6.716 15 15 15s15-6.716 15-15v-3.7c0-8.284-6.716-15-15-15z"/><path id="XMLID_107_" d="m462.797 354.447c-7.788 0-15.094 2.087-21.405 5.716l-82.801-68.936c5.918-10.599 10.011-22.347 11.848-34.82h46.06c6.106 16.365 21.898 28.054 40.374 28.054 23.752 0 43.076-19.314 43.076-43.054 0-23.739-19.324-43.053-43.076-43.054-18.476 0-34.268 11.688-40.374 28.054h-46.06c-2.432-16.513-8.814-31.757-18.156-44.742l98.715-98.628c5.462 2.51 11.53 3.92 17.925 3.92 23.752 0 43.076-19.314 43.076-43.054s-19.324-43.054-43.076-43.054-43.076 19.314-43.076 43.054c0 6.397 1.414 12.467 3.928 17.93l-98.365 98.279c-13.3-10.238-29.169-17.296-46.462-20.022v-47.281c16.378-6.101 28.076-21.887 28.076-40.356 0-23.74-19.324-43.054-43.076-43.054s-43.076 19.314-43.076 43.054c0 18.469 11.698 34.255 28.076 40.356v46.974c-19.303 2.632-36.918 10.641-51.271 22.472l-61.223-50.971c2.153-5.119 3.346-10.737 3.346-16.629 0-23.74-19.324-43.054-43.076-43.054s-43.076 19.314-43.076 43.053c0 23.74 19.324 43.054 43.076 43.054 6.882 0 13.388-1.63 19.164-4.511l61.64 51.318c-8.265 12.344-13.921 26.572-16.177 41.892h-66.237c-6.106-16.365-21.898-28.053-40.374-28.054-23.752 0-43.076 19.314-43.076 43.054s19.324 43.054 43.076 43.054c18.476 0 34.268-11.688 40.374-28.054h66.237c2.604 17.679 9.737 33.903 20.181 47.457l-125.628 125.517c-5.691-2.776-12.08-4.339-18.827-4.339-23.753.001-43.077 19.315-43.077 43.055s19.324 43.054 43.076 43.054 43.076-19.314 43.076-43.054c0-6.043-1.258-11.797-3.517-17.021l126.46-126.349c13.275 9.542 28.913 15.995 45.853 18.305v53.342c-16.378 6.101-28.076 21.887-28.076 40.356 0 23.74 19.324 43.054 43.076 43.054s43.076-19.314 43.076-43.054c0-18.469-11.698-34.255-28.076-40.356v-53.649c21.331-3.362 40.496-13.314 55.343-27.697l81.883 68.171c-1.583 4.478-2.453 9.289-2.453 14.302 0 23.74 19.324 43.054 43.076 43.054s43.076-19.314 43.076-43.054c.001-23.74-19.323-43.054-43.076-43.054zm-5.924-126.094c7.21.001 13.076 5.856 13.076 13.054s-5.866 13.054-13.076 13.054-13.076-5.856-13.076-13.054 5.866-13.054 13.076-13.054zm12.051-197.504c7.21 0 13.076 5.856 13.076 13.054s-5.866 13.054-13.076 13.054-13.076-5.856-13.076-13.054 5.865-13.054 13.076-13.054zm-198.976 8.549c7.21 0 13.076 5.856 13.076 13.054s-5.866 13.054-13.076 13.054-13.076-5.856-13.076-13.054 5.866-13.054 13.076-13.054zm-180.3 55.256c0-7.198 5.866-13.054 13.076-13.054s13.076 5.857 13.076 13.054c0 7.198-5.866 13.054-13.076 13.054s-13.076-5.855-13.076-13.054zm-28.909 159.807c-7.21 0-13.076-5.856-13.076-13.054s5.866-13.054 13.076-13.054 13.077 5.856 13.077 13.054-5.866 13.054-13.077 13.054zm-17.663 226.69c-7.21 0-13.076-5.856-13.076-13.054s5.866-13.054 13.076-13.054 13.076 5.856 13.076 13.054-5.865 13.054-13.076 13.054zm226.872-31.367c-7.21 0-13.076-5.856-13.076-13.054s5.866-13.054 13.076-13.054 13.076 5.856 13.076 13.054-5.865 13.054-13.076 13.054zm-1.053-135.802c-40.057 0-72.645-32.557-72.645-72.575s32.588-72.575 72.645-72.575c40.056 0 72.645 32.557 72.645 72.575s-32.589 72.575-72.645 72.575zm193.902 96.573c-7.21 0-13.076-5.856-13.076-13.054s5.866-13.054 13.076-13.054 13.076 5.856 13.076 13.054c.001 7.198-5.865 13.054-13.076 13.054z"/></g></svg>