<svg xmlns="http://www.w3.org/2000/svg" height="512pt" fill="#5d2e90" version="1.1" viewBox="0 0 512 512" width="512pt">
<g id="surface1" fill="#5d2e90" >
<path fill="#5d2e90" d="M 488.90625 84 L 384 84 C 379.855469 84 376.5 87.355469 376.5 91.5 C 376.5 95.644531 379.855469 99 384 99 L 488.90625 99 C 493.371094 99 497 102.628906 497 107.09375 L 497 395.90625 C 497 400.371094 493.371094 404 488.90625 404 L 23.09375 404 C 18.628906 404 15 400.371094 15 395.90625 L 15 107.09375 C 15 102.628906 18.628906 99 23.09375 99 L 187.875 99 L 187.875 114 L 37.5 114 C 33.355469 114 30 117.355469 30 121.5 L 30 319.667969 C 30 323.808594 33.355469 327.167969 37.5 327.167969 C 41.644531 327.167969 45 323.808594 45 319.667969 L 45 129 L 187.875 129 L 187.875 169.234375 L 155.765625 184.574219 C 153.203125 185.800781 151.5 188.449219 151.5 191.34375 L 151.5 313.65625 C 151.5 316.546875 153.160156 319.179688 155.765625 320.425781 L 252.765625 366.769531 C 254.867188 367.757812 257.238281 367.707031 259.234375 366.769531 L 313.765625 340.714844 C 317.503906 338.929688 319.085938 334.449219 317.300781 330.714844 C 315.515625 326.976562 311.03125 325.394531 307.296875 327.179688 L 263.5 348.105469 L 263.5 242.414062 L 345.5 203.238281 L 345.5 308.929688 L 334.359375 314.25 C 330.621094 316.035156 329.039062 320.515625 330.824219 324.25 C 332.609375 327.988281 337.089844 329.570312 340.824219 327.785156 L 356.234375 320.425781 C 358.839844 319.179688 360.5 316.546875 360.5 313.65625 L 360.5 191.34375 C 360.5 188.484375 358.835938 185.820312 356.234375 184.574219 L 324.125 169.234375 L 324.125 129 L 467 129 L 467 374 L 45 374 L 45 351.667969 C 45 347.523438 41.644531 344.167969 37.5 344.167969 C 33.355469 344.167969 30 347.523438 30 351.667969 L 30 381.5 C 30 385.644531 33.355469 389 37.5 389 L 474.5 389 C 478.644531 389 482 385.644531 482 381.5 L 482 121.5 C 482 117.355469 478.644531 114 474.5 114 L 324.125 114 L 324.125 99 L 352 99 C 356.144531 99 359.5 95.644531 359.5 91.5 C 359.5 87.355469 356.144531 84 352 84 L 324.125 84 L 324.125 69 L 391.375 69 C 395.519531 69 398.875 65.644531 398.875 61.5 L 398.875 43.710938 C 407.605469 40.613281 413.875 32.277344 413.875 22.5 C 413.875 10.09375 403.78125 0 391.375 0 C 378.96875 0 368.875 10.09375 368.875 22.5 C 368.875 32.277344 375.144531 40.613281 383.875 43.710938 L 383.875 54 L 316.625 54 C 312.480469 54 309.125 57.355469 309.125 61.5 L 309.125 84 L 263.5 84 L 263.5 43.710938 C 272.230469 40.613281 278.5 32.277344 278.5 22.5 C 278.5 10.09375 268.40625 0 256 0 C 243.59375 0 233.5 10.09375 233.5 22.5 C 233.5 32.277344 239.769531 40.613281 248.5 43.710938 L 248.5 84 L 202.875 84 L 202.875 61.5 C 202.875 57.355469 199.519531 54 195.375 54 L 128.125 54 L 128.125 43.710938 C 136.855469 40.613281 143.125 32.277344 143.125 22.5 C 143.125 10.09375 133.03125 0 120.625 0 C 108.21875 0 98.125 10.09375 98.125 22.5 C 98.125 32.277344 104.394531 40.613281 113.125 43.710938 L 113.125 61.5 C 113.125 65.644531 116.480469 69 120.625 69 L 187.875 69 L 187.875 84 L 23.09375 84 C 10.359375 84 0 94.359375 0 107.09375 L 0 395.90625 C 0 408.640625 10.359375 419 23.09375 419 L 185.695312 419 C 182.792969 446.511719 164.601562 462.578125 158.867188 467 L 127 467 C 114.59375 467 104.5 477.09375 104.5 489.5 C 104.5 501.90625 114.59375 512 127 512 L 385 512 C 397.40625 512 407.5 501.90625 407.5 489.5 C 407.5 477.09375 397.40625 467 385 467 L 353.152344 467 C 347.492188 462.59375 329.238281 446.382812 326.3125 419 L 488.90625 419 C 501.640625 419 512 408.640625 512 395.90625 L 512 107.09375 C 512 94.359375 501.640625 84 488.90625 84 Z M 391.375 15 C 395.511719 15 398.875 18.363281 398.875 22.5 C 398.875 26.636719 395.511719 30 391.375 30 C 387.238281 30 383.875 26.636719 383.875 22.5 C 383.875 18.363281 387.238281 15 391.375 15 Z M 256 15 C 260.136719 15 263.5 18.363281 263.5 22.5 C 263.5 26.636719 260.136719 30 256 30 C 251.863281 30 248.5 26.636719 248.5 22.5 C 248.5 18.363281 251.863281 15 256 15 Z M 120.625 15 C 124.761719 15 128.125 18.363281 128.125 22.5 C 128.125 26.636719 124.761719 30 120.625 30 C 116.488281 30 113.125 26.636719 113.125 22.5 C 113.125 18.363281 116.488281 15 120.625 15 Z M 202.875 129 L 248.5 129 L 248.5 140.269531 L 202.875 162.070312 Z M 335.601562 191.34375 L 256 229.371094 L 176.398438 191.34375 L 256 153.3125 Z M 166.5 203.238281 L 248.5 242.414062 L 248.5 348.105469 L 166.5 308.929688 Z M 309.125 162.070312 L 263.5 140.269531 L 263.5 129 L 309.125 129 Z M 309.125 99 L 309.125 114 L 263.5 114 L 263.5 99 Z M 248.5 99 L 248.5 114 L 202.875 114 L 202.875 99 Z M 392.5 489.5 C 392.5 493.636719 389.136719 497 385 497 L 127 497 C 122.863281 497 119.5 493.636719 119.5 489.5 C 119.5 485.363281 122.863281 482 127 482 L 385 482 C 389.136719 482 392.5 485.363281 392.5 489.5 Z M 331.640625 467 L 180.359375 467 C 189.152344 456.730469 198.90625 440.726562 200.777344 419 L 311.222656 419 C 313.09375 440.726562 322.847656 456.730469 331.640625 467 Z M 331.640625 467 " style=" stroke:none;fill-rule:nonzero;fill-opacity:1;" />
</g>
</svg>