<svg version="1.1" id="Capa_1" xmlns="http://www.w3.org/2000/svg" xmlns:xlink="http://www.w3.org/1999/xlink" x="0px" y="0px"
	 width="940.899px" height="940.899px" viewBox="0 0 940.899 940.899" style="enable-background:new 0 0 940.899 940.899;"
	 xml:space="preserve">
<g>
	<path d="M434.377,569.6h156.4c-1.4-54.1-9.2-105.899-22.8-152.2c-41.801,9.9-87,15.601-133.601,16.7V569.6L434.377,569.6z"/>
	<path d="M434.377,929.7c15.8-3.2,31.2-10.9,46.2-22.801c20.9-16.699,39.9-41,56.4-72.1c7.399-14,14.1-28.9,20-44.7
		c-38.301-8.8-79.7-13.899-122.5-15V929.7H434.377z"/>
	<path d="M399.377,929.7V775.1c-42.8,1.101-84.2,6.2-122.5,15c5.9,15.8,12.601,30.7,20,44.7c16.5,31.1,35.4,55.4,56.4,72.1
		C368.177,918.8,383.578,926.5,399.377,929.7z"/>
	<path d="M434.377,740.1c46.7,1.101,91.8,6.8,133.601,16.7c13.5-46.3,21.399-98.1,22.8-152.2h-156.4V740.1z"/>
	<path d="M399.377,604.6h-156.4c1.4,54.101,9.2,105.9,22.8,152.2c41.8-9.9,87-15.6,133.6-16.7V604.6z"/>
	<path d="M399.377,434.1c-46.7-1.1-91.8-6.8-133.6-16.7c-13.5,46.301-21.4,98.101-22.8,152.2h156.4V434.1z"/>
	<path d="M339.978,940.8c-27.801-19.5-53-49.8-74.101-89.6c-8.6-16.2-16.3-33.601-23-52.101c-26.7,8.101-51.5,18.101-73.7,29.8
		c-4.9,2.601-9.6,5.2-14.1,7.9C204.078,888.3,268.078,925.3,339.978,940.8z"/>
	<path d="M265.877,323c21.101-39.9,46.3-70.1,74.101-89.6c-72,15.6-136,52.5-185,103.9c4.5,2.7,9.2,5.4,14.1,7.9
		c22.3,11.8,47,21.8,73.7,29.8C249.578,356.6,257.278,339.2,265.877,323z"/>
	<path d="M701.978,810.1c44.8-57.2,72.699-128.2,76.399-205.5h-152.6c-1.4,57.101-9.601,112-24,161.3
		c28.6,8.7,55.2,19.4,79.2,32.101C688.278,801.899,695.278,805.899,701.978,810.1z"/>
	<path d="M399.377,244.5c-15.8,3.2-31.2,10.9-46.2,22.8c-20.899,16.7-39.899,41-56.399,72.1c-7.4,14-14.101,28.9-20,44.7
		c38.3,8.8,79.7,13.9,122.5,15V244.5H399.377z"/>
	<path d="M757.478,464.3c-20.101,24.2-34.5,40.3-36.5,42.6l-0.2,0.301c-11.8,13.399-32.7,13.399-44.5,0l-0.2-0.301
		c-3-3.399-34-38.199-70.3-84.399c11.899,45.5,18.8,95.399,20.1,147.1h152.601C776.578,532.8,769.377,497.399,757.478,464.3z"/>
	<path d="M131.778,364.1c-44.8,57.2-72.7,128.101-76.4,205.5h152.6c1.4-57.1,9.6-112,24-161.3c-28.6-8.7-55.2-19.4-79.2-32.1
		C145.478,372.2,138.478,368.2,131.778,364.1z"/>
	<path d="M678.778,836.899c-4.5-2.699-9.2-5.399-14.101-7.899c-22.3-11.8-47-21.8-73.699-29.8c-6.801,18.399-14.5,35.8-23,52.1
		c-21.101,39.9-46.301,70.1-74.101,89.6C565.677,925.3,629.677,888.3,678.778,836.899z"/>
	<path d="M131.778,810.1c6.7-4.1,13.7-8.2,21-12c24-12.7,50.6-23.5,79.2-32.1c-14.3-49.3-22.6-104.2-24-161.3h-152.6
		C59.078,681.899,86.978,752.899,131.778,810.1z"/>
	<path d="M480.578,267.3c-14.9-11.9-30.4-19.6-46.2-22.8v154.6c42.8-1.1,84.2-6.2,122.5-15c-5.899-15.8-12.6-30.7-20-44.7
		C520.478,308.2,501.478,284,480.578,267.3z"/>
	<path d="M872.078,115.1c-9.5-22.4-23.1-42.6-40.4-59.9c-17.3-17.3-37.399-30.9-59.899-40.4c-23.2-9.8-47.9-14.8-73.3-14.8
		c-25.4,0-50.101,5-73.301,14.8c-22.399,9.5-42.6,23.1-59.899,40.4c-17.3,17.3-30.9,37.4-40.4,59.9c-17.8,42-17.5,89.8-1.7,131.9
		c2.601,7,5.601,13.8,9.101,20.4c18.1,34.6,44.8,73.7,71.6,109.5c7.5,10.101,15.1,19.9,22.4,29.2c22.5,28.7,43.1,53.3,56.6,68.9
		c8.2,9.6,23,9.6,31.3,0c7.9-9.2,18.4-21.601,30.3-36.101c38.101-46.6,90.801-115.1,120.301-171.5
		C888.978,220.9,892.778,164.1,872.078,115.1z M698.478,81.5c58.6,0,106,47.5,106,106c0,1.6,0,3.2-0.101,4.8
		c-0.6,13.8-3.899,26.9-9.3,38.9c-10.1,22.4-27.8,40.6-49.8,51.5c-14.101,7-30.101,10.9-46.9,10.9c-1,0-1.899,0-2.899,0
		c-57.2-1.5-103.101-48.4-103.101-106c0-3.1,0.101-6.2,0.4-9.2C597.578,124.1,643.078,81.5,698.478,81.5z"/>
</g>
<g>
</g>
<g>
</g>
<g>
</g>
<g>
</g>
<g>
</g>
<g>
</g>
<g>
</g>
<g>
</g>
<g>
</g>
<g>
</g>
<g>
</g>
<g>
</g>
<g>
</g>
<g>
</g>
<g>
</g>
</svg>